<svg width="1252.000000" height="320.000000" viewBox="0 0 1252 320" fill="none" xmlns="http://www.w3.org/2000/svg" xmlns:xlink="http://www.w3.org/1999/xlink">
	<desc>
			Created with Pixso.
	</desc>
	<defs>
		<clipPath id="clip142_1043">
			<rect id="Banner" rx="19.500000" width="1251.000000" height="319.000000" transform="translate(0.500000 0.500000)" fill="white" fill-opacity="0"/>
		</clipPath>
		<radialGradient gradientTransform="translate(1252 160) rotate(180) scale(1252 1866.18)" cx="0.000000" cy="0.000000" r="1.000000" id="paint_radial_142_1044_0" gradientUnits="userSpaceOnUse">
			<stop offset="0.500000" stop-color="#FFFFFF" stop-opacity="0.000000"/>
			<stop offset="1.000000" stop-color="#FE510F"/>
		</radialGradient>
	</defs>
	<rect id="Banner" rx="19.500000" width="1251.000000" height="319.000000" transform="translate(0.500000 0.500000)" fill="#FE510F" fill-opacity="1.000000"/>
	<g clip-path="url(#clip142_1043)">
		<path id="Grid" d="M1177.35 -191L1177.35 -122.6L1105.71 -122.6L1105.71 -191L1177.35 -191ZM1105.71 -192L0 -192L0 512L1252 512L1252 -192L1105.71 -192ZM1179.35 -191L1251 -191L1251 -122.6L1179.35 -122.6L1179.35 -191ZM1179.35 -120.6L1251 -120.6L1251 -52.2L1179.35 -52.2L1179.35 -120.6ZM1179.35 -50.2L1251 -50.2L1251 18.2L1179.35 18.2L1179.35 -50.2ZM1177.35 18.2L1177.35 -50.2L1105.71 -50.2L1105.71 18.2L1177.35 18.2ZM1179.35 20.2L1251 20.2L1251 88.6L1179.35 88.6L1179.35 20.2ZM1177.35 88.6L1177.35 20.2L1105.71 20.2L1105.71 88.6L1177.35 88.6ZM1179.35 90.6L1251 90.6L1251 159L1179.35 159L1179.35 90.6ZM1177.35 159L1177.35 90.6L1105.71 90.6L1105.71 159L1177.35 159ZM1179.35 161L1251 161L1251 229.4L1179.35 229.4L1179.35 161ZM1177.35 229.4L1177.35 161L1105.71 161L1105.71 229.4L1177.35 229.4ZM1179.35 231.4L1251 231.4L1251 299.79L1179.35 299.79L1179.35 231.4ZM1177.35 299.79L1177.35 231.4L1105.71 231.4L1105.71 299.79L1177.35 299.79ZM1179.35 301.79L1251 301.79L1251 370.2L1179.35 370.2L1179.35 301.79ZM1177.35 370.2L1177.35 301.79L1105.71 301.79L1105.71 370.2L1177.35 370.2ZM1179.35 372.2L1251 372.2L1251 440.6L1179.35 440.6L1179.35 372.2ZM1177.35 440.6L1177.35 372.2L1105.71 372.2L1105.71 440.6L1177.35 440.6ZM1179.35 442.6L1251 442.6L1251 511L1179.35 511L1179.35 442.6ZM1177.35 511L1177.35 442.6L1105.71 442.6L1105.71 511L1177.35 511ZM1103.71 511L1032.06 511L1032.06 442.6L1103.71 442.6L1103.71 511ZM1103.71 440.6L1032.06 440.6L1032.06 372.2L1103.71 372.2L1103.71 440.6ZM1103.71 370.2L1032.06 370.2L1032.06 301.79L1103.71 301.79L1103.71 370.2ZM1103.71 299.79L1032.06 299.79L1032.06 231.4L1103.71 231.4L1103.71 299.79ZM1103.71 229.4L1032.06 229.4L1032.06 161L1103.71 161L1103.71 229.4ZM1103.71 159L1032.06 159L1032.06 90.6L1103.71 90.6L1103.71 159ZM1103.71 88.6L1032.06 88.6L1032.06 20.2L1103.71 20.2L1103.71 88.6ZM1103.71 18.2L1032.06 18.2L1032.06 -50.2L1103.71 -50.2L1103.71 18.2ZM1103.71 -52.2L1032.06 -52.2L1032.06 -120.6L1103.71 -120.6L1103.71 -52.2ZM1105.71 -120.6L1177.35 -120.6L1177.35 -52.2L1105.71 -52.2L1105.71 -120.6ZM1103.71 -122.6L1032.06 -122.6L1032.06 -191L1103.71 -191L1103.71 -122.6ZM1030.06 -191L1030.06 -122.6L958.41 -122.6L958.41 -191L1030.06 -191ZM956.41 -191L956.41 -122.6L884.76 -122.6L884.76 -191L956.41 -191ZM882.76 -191L882.76 -122.6L811.11 -122.6L811.11 -191L882.76 -191ZM809.11 -191L809.11 -122.6L737.47 -122.6L737.47 -191L809.11 -191ZM735.47 -191L735.47 -122.6L663.82 -122.6L663.82 -191L735.47 -191ZM661.82 -191L661.82 -122.6L590.17 -122.6L590.17 -191L661.82 -191ZM588.17 -191L588.17 -122.6L516.52 -122.6L516.52 -191L588.17 -191ZM514.52 -191L514.52 -122.6L442.88 -122.6L442.88 -191L514.52 -191ZM440.88 -191L440.88 -122.6L369.23 -122.6L369.23 -191L440.88 -191ZM367.23 -191L367.23 -122.6L295.58 -122.6L295.58 -191L367.23 -191ZM293.58 -191L293.58 -122.6L221.94 -122.6L221.94 -191L293.58 -191ZM219.94 -191L219.94 -122.6L148.29 -122.6L148.29 -191L219.94 -191ZM146.29 -191L146.29 -122.6L74.64 -122.6L74.64 -191L146.29 -191ZM72.64 -191L72.64 -122.6L1 -122.6L1 -191L72.64 -191ZM1 -120.6L72.64 -120.6L72.64 -52.2L1 -52.2L1 -120.6ZM1 -50.2L72.64 -50.2L72.64 18.2L1 18.2L1 -50.2ZM1 20.2L72.64 20.2L72.64 88.6L1 88.6L1 20.2ZM1 90.6L72.64 90.6L72.64 159L1 159L1 90.6ZM1 161L72.64 161L72.64 229.4L1 229.4L1 161ZM1 231.4L72.64 231.4L72.64 299.79L1 299.79L1 231.4ZM1 301.79L72.64 301.79L72.64 370.2L1 370.2L1 301.79ZM1 372.2L72.64 372.2L72.64 440.6L1 440.6L1 372.2ZM1 442.6L72.64 442.6L72.64 511L1 511L1 442.6ZM74.64 511L74.64 442.6L146.29 442.6L146.29 511L74.64 511ZM148.29 511L148.29 442.6L219.94 442.6L219.94 511L148.29 511ZM221.94 511L221.94 442.6L293.58 442.6L293.58 511L221.94 511ZM295.58 511L295.58 442.6L367.23 442.6L367.23 511L295.58 511ZM369.23 511L369.23 442.6L440.88 442.6L440.88 511L369.23 511ZM442.88 511L442.88 442.6L514.52 442.6L514.52 511L442.88 511ZM516.52 511L516.52 442.6L588.17 442.6L588.17 511L516.52 511ZM590.17 511L590.17 442.6L661.82 442.6L661.82 511L590.17 511ZM663.82 511L663.82 442.6L735.47 442.6L735.47 511L663.82 511ZM737.47 511L737.47 442.6L809.11 442.6L809.11 511L737.47 511ZM811.11 511L811.11 442.6L882.76 442.6L882.76 511L811.11 511ZM884.76 511L884.76 442.6L956.41 442.6L956.41 511L884.76 511ZM958.41 511L958.41 442.6L1030.06 442.6L1030.06 511L958.41 511ZM1030.06 440.6L958.41 440.6L958.41 372.2L1030.06 372.2L1030.06 440.6ZM1030.06 370.2L958.41 370.2L958.41 301.79L1030.06 301.79L1030.06 370.2ZM1030.06 299.79L958.41 299.79L958.41 231.4L1030.06 231.4L1030.06 299.79ZM1030.06 229.4L958.41 229.4L958.41 161L1030.06 161L1030.06 229.4ZM1030.06 159L958.41 159L958.41 90.6L1030.06 90.6L1030.06 159ZM1030.06 88.6L958.41 88.6L958.41 20.2L1030.06 20.2L1030.06 88.6ZM1030.06 18.2L958.41 18.2L958.41 -50.2L1030.06 -50.2L1030.06 18.2ZM1030.06 -52.2L958.41 -52.2L958.41 -120.6L1030.06 -120.6L1030.06 -52.2ZM956.41 -120.6L956.41 -52.2L884.76 -52.2L884.76 -120.6L956.41 -120.6ZM882.76 -120.6L882.76 -52.2L811.11 -52.2L811.11 -120.6L882.76 -120.6ZM809.11 -120.6L809.11 -52.2L737.47 -52.2L737.47 -120.6L809.11 -120.6ZM735.47 -120.6L735.47 -52.2L663.82 -52.2L663.82 -120.6L735.47 -120.6ZM661.82 -120.6L661.82 -52.2L590.17 -52.2L590.17 -120.6L661.82 -120.6ZM588.17 -120.6L588.17 -52.2L516.52 -52.2L516.52 -120.6L588.17 -120.6ZM514.52 -120.6L514.52 -52.2L442.88 -52.2L442.88 -120.6L514.52 -120.6ZM440.88 -120.6L440.88 -52.2L369.23 -52.2L369.23 -120.6L440.88 -120.6ZM367.23 -120.6L367.23 -52.2L295.58 -52.2L295.58 -120.6L367.23 -120.6ZM293.58 -120.6L293.58 -52.2L221.94 -52.2L221.94 -120.6L293.58 -120.6ZM219.94 -120.6L219.94 -52.2L148.29 -52.2L148.29 -120.6L219.94 -120.6ZM146.29 -120.6L146.29 -52.2L74.64 -52.2L74.64 -120.6L146.29 -120.6ZM74.64 -50.2L146.29 -50.2L146.29 18.2L74.64 18.2L74.64 -50.2ZM74.64 20.2L146.29 20.2L146.29 88.6L74.64 88.6L74.64 20.2ZM74.64 90.6L146.29 90.6L146.29 159L74.64 159L74.64 90.6ZM74.64 161L146.29 161L146.29 229.4L74.64 229.4L74.64 161ZM74.64 231.4L146.29 231.4L146.29 299.79L74.64 299.79L74.64 231.4ZM74.64 301.79L146.29 301.79L146.29 370.2L74.64 370.2L74.64 301.79ZM74.64 372.2L146.29 372.2L146.29 440.6L74.64 440.6L74.64 372.2ZM148.29 440.6L148.29 372.2L219.94 372.2L219.94 440.6L148.29 440.6ZM221.94 440.6L221.94 372.2L293.58 372.2L293.58 440.6L221.94 440.6ZM295.58 440.6L295.58 372.2L367.23 372.2L367.23 440.6L295.58 440.6ZM369.23 440.6L369.23 372.2L440.88 372.2L440.88 440.6L369.23 440.6ZM442.88 440.6L442.88 372.2L514.52 372.2L514.52 440.6L442.88 440.6ZM516.52 440.6L516.52 372.2L588.17 372.2L588.17 440.6L516.52 440.6ZM590.17 440.6L590.17 372.2L661.82 372.2L661.82 440.6L590.17 440.6ZM663.82 440.6L663.82 372.2L735.47 372.2L735.47 440.6L663.82 440.6ZM737.47 440.6L737.47 372.2L809.11 372.2L809.11 440.6L737.47 440.6ZM811.11 440.6L811.11 372.2L882.76 372.2L882.76 440.6L811.11 440.6ZM884.76 440.6L884.76 372.2L956.41 372.2L956.41 440.6L884.76 440.6ZM956.41 370.2L884.76 370.2L884.76 301.79L956.41 301.79L956.41 370.2ZM956.41 299.79L884.76 299.79L884.76 231.4L956.41 231.4L956.41 299.79ZM956.41 229.4L884.76 229.4L884.76 161L956.41 161L956.41 229.4ZM956.41 159L884.76 159L884.76 90.6L956.41 90.6L956.41 159ZM956.41 88.6L884.76 88.6L884.76 20.2L956.41 20.2L956.41 88.6ZM956.41 18.2L884.76 18.2L884.76 -50.2L956.41 -50.2L956.41 18.2ZM882.76 -50.2L882.76 18.2L811.11 18.2L811.11 -50.2L882.76 -50.2ZM809.11 -50.2L809.11 18.2L737.47 18.2L737.47 -50.2L809.11 -50.2ZM735.47 -50.2L735.47 18.2L663.82 18.2L663.82 -50.2L735.47 -50.2ZM661.82 -50.2L661.82 18.2L590.17 18.2L590.17 -50.2L661.82 -50.2ZM588.17 -50.2L588.17 18.2L516.52 18.2L516.52 -50.2L588.17 -50.2ZM514.52 -50.2L514.52 18.2L442.88 18.2L442.88 -50.2L514.52 -50.2ZM440.88 -50.2L440.88 18.2L369.23 18.2L369.23 -50.2L440.88 -50.2ZM367.23 -50.2L367.23 18.2L295.58 18.2L295.58 -50.2L367.23 -50.2ZM293.58 -50.2L293.58 18.2L221.94 18.2L221.94 -50.2L293.58 -50.2ZM219.94 -50.2L219.94 18.2L148.29 18.2L148.29 -50.2L219.94 -50.2ZM148.29 20.2L219.94 20.2L219.94 88.6L148.29 88.6L148.29 20.2ZM148.29 90.6L219.94 90.6L219.94 159L148.29 159L148.29 90.6ZM148.29 161L219.94 161L219.94 229.4L148.29 229.4L148.29 161ZM148.29 231.4L219.94 231.4L219.94 299.79L148.29 299.79L148.29 231.4ZM148.29 301.79L219.94 301.79L219.94 370.2L148.29 370.2L148.29 301.79ZM221.94 370.2L221.94 301.79L293.58 301.79L293.58 370.2L221.94 370.2ZM295.58 370.2L295.58 301.79L367.23 301.79L367.23 370.2L295.58 370.2ZM369.23 370.2L369.23 301.79L440.88 301.79L440.88 370.2L369.23 370.2ZM442.88 370.2L442.88 301.79L514.52 301.79L514.52 370.2L442.88 370.2ZM516.52 370.2L516.52 301.79L588.17 301.79L588.17 370.2L516.52 370.2ZM590.17 370.2L590.17 301.79L661.82 301.79L661.82 370.2L590.17 370.2ZM663.82 370.2L663.82 301.79L735.47 301.79L735.47 370.2L663.82 370.2ZM737.47 370.2L737.47 301.79L809.11 301.79L809.11 370.2L737.47 370.2ZM811.11 370.2L811.11 301.79L882.76 301.79L882.76 370.2L811.11 370.2ZM882.76 299.79L811.11 299.79L811.11 231.4L882.76 231.4L882.76 299.79ZM882.76 229.4L811.11 229.4L811.11 161L882.76 161L882.76 229.4ZM882.76 159L811.11 159L811.11 90.6L882.76 90.6L882.76 159ZM882.76 88.6L811.11 88.6L811.11 20.2L882.76 20.2L882.76 88.6ZM809.11 20.2L809.11 88.6L737.47 88.6L737.47 20.2L809.11 20.2ZM735.47 20.2L735.47 88.6L663.82 88.6L663.82 20.2L735.47 20.2ZM661.82 20.2L661.82 88.6L590.17 88.6L590.17 20.2L661.82 20.2ZM588.17 20.2L588.17 88.6L516.52 88.6L516.52 20.2L588.17 20.2ZM514.52 20.2L514.52 88.6L442.88 88.6L442.88 20.2L514.52 20.2ZM440.88 20.2L440.88 88.6L369.23 88.6L369.23 20.2L440.88 20.2ZM367.23 20.2L367.23 88.6L295.58 88.6L295.58 20.2L367.23 20.2ZM293.58 20.2L293.58 88.6L221.94 88.6L221.94 20.2L293.58 20.2ZM221.94 90.6L293.58 90.6L293.58 159L221.94 159L221.94 90.6ZM221.94 161L293.58 161L293.58 229.4L221.94 229.4L221.94 161ZM221.94 231.4L293.58 231.4L293.58 299.79L221.94 299.79L221.94 231.4ZM295.58 299.79L295.58 231.4L367.23 231.4L367.23 299.79L295.58 299.79ZM369.23 299.79L369.23 231.4L440.88 231.4L440.88 299.79L369.23 299.79ZM442.88 299.79L442.88 231.4L514.52 231.4L514.52 299.79L442.88 299.79ZM516.52 299.79L516.52 231.4L588.17 231.4L588.17 299.79L516.52 299.79ZM590.17 299.79L590.17 231.4L661.82 231.4L661.82 299.79L590.17 299.79ZM663.82 299.79L663.82 231.4L735.47 231.4L735.47 299.79L663.82 299.79ZM737.47 299.79L737.47 231.4L809.11 231.4L809.11 299.79L737.47 299.79ZM809.11 229.4L737.47 229.4L737.47 161L809.11 161L809.11 229.4ZM809.11 159L737.47 159L737.47 90.6L809.11 90.6L809.11 159ZM735.47 90.6L735.47 159L663.82 159L663.82 90.6L735.47 90.6ZM661.82 90.6L661.82 159L590.17 159L590.17 90.6L661.82 90.6ZM588.17 90.6L588.17 159L516.52 159L516.52 90.6L588.17 90.6ZM514.52 90.6L514.52 159L442.88 159L442.88 90.6L514.52 90.6ZM440.88 90.6L440.88 159L369.23 159L369.23 90.6L440.88 90.6ZM367.23 90.6L367.23 159L295.58 159L295.58 90.6L367.23 90.6ZM295.58 161L367.23 161L367.23 229.4L295.58 229.4L295.58 161ZM369.23 229.4L369.23 161L440.88 161L440.88 229.4L369.23 229.4ZM442.88 229.4L442.88 161L514.52 161L514.52 229.4L442.88 229.4ZM516.52 229.4L516.52 161L588.17 161L588.17 229.4L516.52 229.4ZM590.17 229.4L590.17 161L661.82 161L661.82 229.4L590.17 229.4ZM663.82 229.4L663.82 161L735.47 161L735.47 229.4L663.82 229.4Z" fill="url(#paint_radial_142_1044_0)" fill-opacity="1.000000" fill-rule="evenodd"/>
		<path id="Union" d="M1186.27 -99.157C1225.32 -138.209 1225.32 -201.526 1186.27 -240.578L1044.85 -99.157C1083.9 -60.1046 1147.21 -60.1046 1186.27 -99.157ZM1327.69 -99.1568C1288.64 -138.209 1225.32 -138.209 1186.27 -99.1568C1147.21 -60.1044 1147.21 3.21216 1186.27 42.2646L1327.69 -99.1568Z" clip-rule="evenodd" fill="#AB0B00" fill-opacity="1.000000" fill-rule="evenodd"/>
		<path id="Union" d="M903.424 183.686C942.477 144.633 942.477 81.3168 903.424 42.2643L762.003 183.686C801.056 222.738 864.372 222.738 903.424 183.686ZM1044.85 183.686C1005.79 144.633 942.477 144.633 903.424 183.686C864.372 222.738 864.372 286.055 903.424 325.107L1044.85 183.686Z" clip-rule="evenodd" fill="#AB0B00" fill-opacity="1.000000" fill-rule="evenodd"/>
		<path id="Union" d="M1044.85 42.2645C1005.79 3.21216 942.477 3.21216 903.424 42.2645L1044.85 183.686C1083.9 144.633 1083.9 81.317 1044.85 42.2645ZM1044.85 -99.157C1005.79 -60.1046 1005.79 3.21185 1044.85 42.2643C1083.9 81.3167 1147.21 81.3167 1186.27 42.2643L1044.85 -99.157Z" clip-rule="evenodd" fill="#FDECE4" fill-opacity="1.000000" fill-rule="evenodd"/>
		<path id="Union" d="M1186.27 183.686C1225.32 144.633 1225.32 81.3168 1186.27 42.2643L1044.85 183.686C1083.9 222.738 1147.21 222.738 1186.27 183.686ZM1327.69 183.686C1288.64 144.633 1225.32 144.633 1186.27 183.686C1147.21 222.738 1147.21 286.055 1186.27 325.107L1327.69 183.686Z" clip-rule="evenodd" fill="#AB0B00" fill-opacity="1.000000" fill-rule="evenodd"/>
		<path id="Union" d="M1327.68 325.107C1288.63 286.054 1225.32 286.054 1186.26 325.107L1327.68 466.528C1366.74 427.476 1366.74 364.159 1327.68 325.107ZM1327.68 183.685C1288.63 222.737 1288.63 286.054 1327.68 325.106C1366.74 364.159 1430.05 364.159 1469.11 325.106L1327.68 183.685Z" clip-rule="evenodd" fill="#FDECE4" fill-opacity="1.000000" fill-rule="evenodd"/>
		<path id="Union" d="M1327.69 42.2645C1288.64 3.21216 1225.32 3.21216 1186.27 42.2645L1327.69 183.686C1366.74 144.633 1366.74 81.317 1327.69 42.2645ZM1327.69 -99.157C1288.64 -60.1046 1288.64 3.21191 1327.69 42.2643C1366.74 81.3167 1430.06 81.3167 1469.11 42.2643L1327.69 -99.157Z" clip-rule="evenodd" fill="#FDECE4" fill-opacity="1.000000" fill-rule="evenodd"/>
		<path id="Union" d="M1044.85 325.107C1005.79 286.055 942.477 286.055 903.424 325.107L1044.85 466.529C1083.9 427.476 1083.9 364.16 1044.85 325.107ZM1044.85 183.686C1005.79 222.738 1005.79 286.055 1044.85 325.107C1083.9 364.159 1147.21 364.159 1186.27 325.107L1044.85 183.686Z" clip-rule="evenodd" fill="#FDECE4" fill-opacity="1.000000" fill-rule="evenodd"/>
	</g>
	<rect id="Banner" rx="19.500000" width="1251.000000" height="319.000000" transform="translate(0.500000 0.500000)" stroke="#FDD5C4" stroke-opacity="1.000000" stroke-width="1.000000"/>
</svg>
