<svg width="1252.000000" height="704.000000" viewBox="0 0 1252 704" fill="none" xmlns="http://www.w3.org/2000/svg" xmlns:xlink="http://www.w3.org/1999/xlink">
	<desc>
			Created with Pixso.
	</desc>
	<defs>
		<radialGradient gradientTransform="translate(626 704) rotate(-90) scale(704 1049.35)" cx="0.000000" cy="0.000000" r="1.000000" id="paint_radial_125_2041_0" gradientUnits="userSpaceOnUse">
			<stop offset="0.500000" stop-color="#FFFFFF" stop-opacity="0.000000"/>
			<stop offset="1.000000" stop-color="#F1F0ED" stop-opacity="0.800000"/>
		</radialGradient>
	</defs>
	<path id="Grid" d="M1177.35 1L1177.35 69.4L1105.71 69.4L1105.71 1L1177.35 1ZM1105.71 0L0 0L0 704L1252 704L1252 0L1105.71 0ZM1179.35 1L1251 1L1251 69.4L1179.35 69.4L1179.35 1ZM1179.35 71.4L1251 71.4L1251 139.8L1179.35 139.8L1179.35 71.4ZM1179.35 141.8L1251 141.8L1251 210.2L1179.35 210.2L1179.35 141.8ZM1177.35 210.2L1177.35 141.8L1105.71 141.8L1105.71 210.2L1177.35 210.2ZM1179.35 212.2L1251 212.2L1251 280.6L1179.35 280.6L1179.35 212.2ZM1177.35 280.6L1177.35 212.2L1105.71 212.2L1105.71 280.6L1177.35 280.6ZM1179.35 282.6L1251 282.6L1251 351L1179.35 351L1179.35 282.6ZM1177.35 351L1177.35 282.6L1105.71 282.6L1105.71 351L1177.35 351ZM1179.35 353L1251 353L1251 421.4L1179.35 421.4L1179.35 353ZM1177.35 421.4L1177.35 353L1105.71 353L1105.71 421.4L1177.35 421.4ZM1179.35 423.4L1251 423.4L1251 491.8L1179.35 491.8L1179.35 423.4ZM1177.35 491.8L1177.35 423.4L1105.71 423.4L1105.71 491.8L1177.35 491.8ZM1179.35 493.8L1251 493.8L1251 562.2L1179.35 562.2L1179.35 493.8ZM1177.35 562.2L1177.35 493.8L1105.71 493.8L1105.71 562.2L1177.35 562.2ZM1179.35 564.2L1251 564.2L1251 632.59L1179.35 632.59L1179.35 564.2ZM1177.35 632.59L1177.35 564.2L1105.71 564.2L1105.71 632.59L1177.35 632.59ZM1179.35 634.59L1251 634.59L1251 703L1179.35 703L1179.35 634.59ZM1177.35 703L1177.35 634.59L1105.71 634.59L1105.71 703L1177.35 703ZM1103.71 703L1032.06 703L1032.06 634.59L1103.71 634.59L1103.71 703ZM1103.71 632.59L1032.06 632.59L1032.06 564.2L1103.71 564.2L1103.71 632.59ZM1103.71 562.2L1032.06 562.2L1032.06 493.8L1103.71 493.8L1103.71 562.2ZM1103.71 491.8L1032.06 491.8L1032.06 423.4L1103.71 423.4L1103.71 491.8ZM1103.71 421.4L1032.06 421.4L1032.06 353L1103.71 353L1103.71 421.4ZM1103.71 351L1032.06 351L1032.06 282.6L1103.71 282.6L1103.71 351ZM1103.71 280.6L1032.06 280.6L1032.06 212.2L1103.71 212.2L1103.71 280.6ZM1103.71 210.2L1032.06 210.2L1032.06 141.8L1103.71 141.8L1103.71 210.2ZM1103.71 139.8L1032.06 139.8L1032.06 71.4L1103.71 71.4L1103.71 139.8ZM1105.71 71.4L1177.35 71.4L1177.35 139.8L1105.71 139.8L1105.71 71.4ZM1103.71 69.4L1032.06 69.4L1032.06 1L1103.71 1L1103.71 69.4ZM1030.06 1L1030.06 69.4L958.41 69.4L958.41 1L1030.06 1ZM956.41 1L956.41 69.4L884.76 69.4L884.76 1L956.41 1ZM882.76 1L882.76 69.4L811.11 69.4L811.11 1L882.76 1ZM809.11 1L809.11 69.4L737.47 69.4L737.47 1L809.11 1ZM735.47 1L735.47 69.4L663.82 69.4L663.82 1L735.47 1ZM661.82 1L661.82 69.4L590.17 69.4L590.17 1L661.82 1ZM588.17 1L588.17 69.4L516.52 69.4L516.52 1L588.17 1ZM514.52 1L514.52 69.4L442.88 69.4L442.88 1L514.52 1ZM440.88 1L440.88 69.4L369.23 69.4L369.23 1L440.88 1ZM367.23 1L367.23 69.4L295.58 69.4L295.58 1L367.23 1ZM293.58 1L293.58 69.4L221.94 69.4L221.94 1L293.58 1ZM219.94 1L219.94 69.4L148.29 69.4L148.29 1L219.94 1ZM146.29 1L146.29 69.4L74.64 69.4L74.64 1L146.29 1ZM72.64 1L72.64 69.4L1 69.4L1 1L72.64 1ZM1 71.4L72.64 71.4L72.64 139.8L1 139.8L1 71.4ZM1 141.8L72.64 141.8L72.64 210.2L1 210.2L1 141.8ZM1 212.2L72.64 212.2L72.64 280.6L1 280.6L1 212.2ZM1 282.6L72.64 282.6L72.64 351L1 351L1 282.6ZM1 353L72.64 353L72.64 421.4L1 421.4L1 353ZM1 423.4L72.64 423.4L72.64 491.8L1 491.8L1 423.4ZM1 493.8L72.64 493.8L72.64 562.2L1 562.2L1 493.8ZM1 564.2L72.64 564.2L72.64 632.59L1 632.59L1 564.2ZM1 634.59L72.64 634.59L72.64 703L1 703L1 634.59ZM74.64 703L74.64 634.59L146.29 634.59L146.29 703L74.64 703ZM148.29 703L148.29 634.59L219.94 634.59L219.94 703L148.29 703ZM221.94 703L221.94 634.59L293.58 634.59L293.58 703L221.94 703ZM295.58 703L295.58 634.59L367.23 634.59L367.23 703L295.58 703ZM369.23 703L369.23 634.59L440.88 634.59L440.88 703L369.23 703ZM442.88 703L442.88 634.59L514.52 634.59L514.52 703L442.88 703ZM516.52 703L516.52 634.59L588.17 634.59L588.17 703L516.52 703ZM590.17 703L590.17 634.59L661.82 634.59L661.82 703L590.17 703ZM663.82 703L663.82 634.59L735.47 634.59L735.47 703L663.82 703ZM737.47 703L737.47 634.59L809.11 634.59L809.11 703L737.47 703ZM811.11 703L811.11 634.59L882.76 634.59L882.76 703L811.11 703ZM884.76 703L884.76 634.59L956.41 634.59L956.41 703L884.76 703ZM958.41 703L958.41 634.59L1030.06 634.59L1030.06 703L958.41 703ZM1030.06 632.59L958.41 632.59L958.41 564.2L1030.06 564.2L1030.06 632.59ZM1030.06 562.2L958.41 562.2L958.41 493.8L1030.06 493.8L1030.06 562.2ZM1030.06 491.8L958.41 491.8L958.41 423.4L1030.06 423.4L1030.06 491.8ZM1030.06 421.4L958.41 421.4L958.41 353L1030.06 353L1030.06 421.4ZM1030.06 351L958.41 351L958.41 282.6L1030.06 282.6L1030.06 351ZM1030.06 280.6L958.41 280.6L958.41 212.2L1030.06 212.2L1030.06 280.6ZM1030.06 210.2L958.41 210.2L958.41 141.8L1030.06 141.8L1030.06 210.2ZM1030.06 139.8L958.41 139.8L958.41 71.4L1030.06 71.4L1030.06 139.8ZM956.41 71.4L956.41 139.8L884.76 139.8L884.76 71.4L956.41 71.4ZM882.76 71.4L882.76 139.8L811.11 139.8L811.11 71.4L882.76 71.4ZM809.11 71.4L809.11 139.8L737.47 139.8L737.47 71.4L809.11 71.4ZM735.47 71.4L735.47 139.8L663.82 139.8L663.82 71.4L735.47 71.4ZM661.82 71.4L661.82 139.8L590.17 139.8L590.17 71.4L661.82 71.4ZM588.17 71.4L588.17 139.8L516.52 139.8L516.52 71.4L588.17 71.4ZM514.52 71.4L514.52 139.8L442.88 139.8L442.88 71.4L514.52 71.4ZM440.88 71.4L440.88 139.8L369.23 139.8L369.23 71.4L440.88 71.4ZM367.23 71.4L367.23 139.8L295.58 139.8L295.58 71.4L367.23 71.4ZM293.58 71.4L293.58 139.8L221.94 139.8L221.94 71.4L293.58 71.4ZM219.94 71.4L219.94 139.8L148.29 139.8L148.29 71.4L219.94 71.4ZM146.29 71.4L146.29 139.8L74.64 139.8L74.64 71.4L146.29 71.4ZM74.64 141.8L146.29 141.8L146.29 210.2L74.64 210.2L74.64 141.8ZM74.64 212.2L146.29 212.2L146.29 280.6L74.64 280.6L74.64 212.2ZM74.64 282.6L146.29 282.6L146.29 351L74.64 351L74.64 282.6ZM74.64 353L146.29 353L146.29 421.4L74.64 421.4L74.64 353ZM74.64 423.4L146.29 423.4L146.29 491.8L74.64 491.8L74.64 423.4ZM74.64 493.8L146.29 493.8L146.29 562.2L74.64 562.2L74.64 493.8ZM74.64 564.2L146.29 564.2L146.29 632.59L74.64 632.59L74.64 564.2ZM148.29 632.59L148.29 564.2L219.94 564.2L219.94 632.59L148.29 632.59ZM221.94 632.59L221.94 564.2L293.58 564.2L293.58 632.59L221.94 632.59ZM295.58 632.59L295.58 564.2L367.23 564.2L367.23 632.59L295.58 632.59ZM369.23 632.59L369.23 564.2L440.88 564.2L440.88 632.59L369.23 632.59ZM442.88 632.59L442.88 564.2L514.52 564.2L514.52 632.59L442.88 632.59ZM516.52 632.59L516.52 564.2L588.17 564.2L588.17 632.59L516.52 632.59ZM590.17 632.59L590.17 564.2L661.82 564.2L661.82 632.59L590.17 632.59ZM663.82 632.59L663.82 564.2L735.47 564.2L735.47 632.59L663.82 632.59ZM737.47 632.59L737.47 564.2L809.11 564.2L809.11 632.59L737.47 632.59ZM811.11 632.59L811.11 564.2L882.76 564.2L882.76 632.59L811.11 632.59ZM884.76 632.59L884.76 564.2L956.41 564.2L956.41 632.59L884.76 632.59ZM956.41 562.2L884.76 562.2L884.76 493.8L956.41 493.8L956.41 562.2ZM956.41 491.8L884.76 491.8L884.76 423.4L956.41 423.4L956.41 491.8ZM956.41 421.4L884.76 421.4L884.76 353L956.41 353L956.41 421.4ZM956.41 351L884.76 351L884.76 282.6L956.41 282.6L956.41 351ZM956.41 280.6L884.76 280.6L884.76 212.2L956.41 212.2L956.41 280.6ZM956.41 210.2L884.76 210.2L884.76 141.8L956.41 141.8L956.41 210.2ZM882.76 141.8L882.76 210.2L811.11 210.2L811.11 141.8L882.76 141.8ZM809.11 141.8L809.11 210.2L737.47 210.2L737.47 141.8L809.11 141.8ZM735.47 141.8L735.47 210.2L663.82 210.2L663.82 141.8L735.47 141.8ZM661.82 141.8L661.82 210.2L590.17 210.2L590.17 141.8L661.82 141.8ZM588.17 141.8L588.17 210.2L516.52 210.2L516.52 141.8L588.17 141.8ZM514.52 141.8L514.52 210.2L442.88 210.2L442.88 141.8L514.52 141.8ZM440.88 141.8L440.88 210.2L369.23 210.2L369.23 141.8L440.88 141.8ZM367.23 141.8L367.23 210.2L295.58 210.2L295.58 141.8L367.23 141.8ZM293.58 141.8L293.58 210.2L221.94 210.2L221.94 141.8L293.58 141.8ZM219.94 141.8L219.94 210.2L148.29 210.2L148.29 141.8L219.94 141.8ZM148.29 212.2L219.94 212.2L219.94 280.6L148.29 280.6L148.29 212.2ZM148.29 282.6L219.94 282.6L219.94 351L148.29 351L148.29 282.6ZM148.29 353L219.94 353L219.94 421.4L148.29 421.4L148.29 353ZM148.29 423.4L219.94 423.4L219.94 491.8L148.29 491.8L148.29 423.4ZM148.29 493.8L219.94 493.8L219.94 562.2L148.29 562.2L148.29 493.8ZM221.94 562.2L221.94 493.8L293.58 493.8L293.58 562.2L221.94 562.2ZM295.58 562.2L295.58 493.8L367.23 493.8L367.23 562.2L295.58 562.2ZM369.23 562.2L369.23 493.8L440.88 493.8L440.88 562.2L369.23 562.2ZM442.88 562.2L442.88 493.8L514.52 493.8L514.52 562.2L442.88 562.2ZM516.52 562.2L516.52 493.8L588.17 493.8L588.17 562.2L516.52 562.2ZM590.17 562.2L590.17 493.8L661.82 493.8L661.82 562.2L590.17 562.2ZM663.82 562.2L663.82 493.8L735.47 493.8L735.47 562.2L663.82 562.2ZM737.47 562.2L737.47 493.8L809.11 493.8L809.11 562.2L737.47 562.2ZM811.11 562.2L811.11 493.8L882.76 493.8L882.76 562.2L811.11 562.2ZM882.76 491.8L811.11 491.8L811.11 423.4L882.76 423.4L882.76 491.8ZM882.76 421.4L811.11 421.4L811.11 353L882.76 353L882.76 421.4ZM882.76 351L811.11 351L811.11 282.6L882.76 282.6L882.76 351ZM882.76 280.6L811.11 280.6L811.11 212.2L882.76 212.2L882.76 280.6ZM809.11 212.2L809.11 280.6L737.47 280.6L737.47 212.2L809.11 212.2ZM735.47 212.2L735.47 280.6L663.82 280.6L663.82 212.2L735.47 212.2ZM661.82 212.2L661.82 280.6L590.17 280.6L590.17 212.2L661.82 212.2ZM588.17 212.2L588.17 280.6L516.52 280.6L516.52 212.2L588.17 212.2ZM514.52 212.2L514.52 280.6L442.88 280.6L442.88 212.2L514.52 212.2ZM440.88 212.2L440.88 280.6L369.23 280.6L369.23 212.2L440.88 212.2ZM367.23 212.2L367.23 280.6L295.58 280.6L295.58 212.2L367.23 212.2ZM293.58 212.2L293.58 280.6L221.94 280.6L221.94 212.2L293.58 212.2ZM221.94 282.6L293.58 282.6L293.58 351L221.94 351L221.94 282.6ZM221.94 353L293.58 353L293.58 421.4L221.94 421.4L221.94 353ZM221.94 423.4L293.58 423.4L293.58 491.8L221.94 491.8L221.94 423.4ZM295.58 491.8L295.58 423.4L367.23 423.4L367.23 491.8L295.58 491.8ZM369.23 491.8L369.23 423.4L440.88 423.4L440.88 491.8L369.23 491.8ZM442.88 491.8L442.88 423.4L514.52 423.4L514.52 491.8L442.88 491.8ZM516.52 491.8L516.52 423.4L588.17 423.4L588.17 491.8L516.52 491.8ZM590.17 491.8L590.17 423.4L661.82 423.4L661.82 491.8L590.17 491.8ZM663.82 491.8L663.82 423.4L735.47 423.4L735.47 491.8L663.82 491.8ZM737.47 491.8L737.47 423.4L809.11 423.4L809.11 491.8L737.47 491.8ZM809.11 421.4L737.47 421.4L737.47 353L809.11 353L809.11 421.4ZM809.11 351L737.47 351L737.47 282.6L809.11 282.6L809.11 351ZM735.47 282.6L735.47 351L663.82 351L663.82 282.6L735.47 282.6ZM661.82 282.6L661.82 351L590.17 351L590.17 282.6L661.82 282.6ZM588.17 282.6L588.17 351L516.52 351L516.52 282.6L588.17 282.6ZM514.52 282.6L514.52 351L442.88 351L442.88 282.6L514.52 282.6ZM440.88 282.6L440.88 351L369.23 351L369.23 282.6L440.88 282.6ZM367.23 282.6L367.23 351L295.58 351L295.58 282.6L367.23 282.6ZM295.58 353L367.23 353L367.23 421.4L295.58 421.4L295.58 353ZM369.23 421.4L369.23 353L440.88 353L440.88 421.4L369.23 421.4ZM442.88 421.4L442.88 353L514.52 353L514.52 421.4L442.88 421.4ZM516.52 421.4L516.52 353L588.17 353L588.17 421.4L516.52 421.4ZM590.17 421.4L590.17 353L661.82 353L661.82 421.4L590.17 421.4ZM663.82 421.4L663.82 353L735.47 353L735.47 421.4L663.82 421.4Z" fill="url(#paint_radial_125_2041_0)" fill-opacity="1.000000" fill-rule="evenodd"/>
</svg>
