<svg width="100.000000" height="100.000000" viewBox="0 0 100 100" fill="none" xmlns="http://www.w3.org/2000/svg" xmlns:xlink="http://www.w3.org/1999/xlink">
	<desc>
			Created with Pixso.
	</desc>
	<defs>
		<clipPath id="clip2_722">
			<rect id="State=spain" rx="0.000000" width="99.000000" height="99.000000" transform="translate(0.500000 0.500000)" fill="white" fill-opacity="0"/>
		</clipPath>
	</defs>
	<rect id="State=spain" rx="0.000000" width="99.000000" height="99.000000" transform="translate(0.500000 0.500000)" fill="#FFFFFF" fill-opacity="0"/>
	<g clip-path="url(#clip2_722)">
		<path id="Vector" d="M0 50C0 56.11 1.1 61.97 3.1 67.39L50 71.73L96.89 67.39C98.89 61.97 100 56.11 100 50C100 43.88 98.89 38.02 96.89 32.6L50 28.26L3.1 32.6C1.1 38.02 0 43.88 0 50L0 50Z" fill="#FFDA44" fill-opacity="1.000000" fill-rule="nonzero"/>
		<path id="Vector" d="M96.89 32.6C89.82 13.56 71.49 0 50 0C28.5 0 10.17 13.56 3.1 32.6L96.89 32.6Z" fill="#D80027" fill-opacity="1.000000" fill-rule="nonzero"/>
		<path id="Vector" d="M3.1 67.39C10.17 86.43 28.5 100 50 100C71.49 100 89.82 86.43 96.89 67.39L3.1 67.39Z" fill="#D80027" fill-opacity="1.000000" fill-rule="nonzero"/>
	</g>
</svg>
