<svg width="39.577881" height="34.935059" viewBox="0 0 39.5779 34.9351" fill="none" xmlns="http://www.w3.org/2000/svg" xmlns:xlink="http://www.w3.org/1999/xlink">
	<desc>
			Created with Pixso.
	</desc>
	<defs/>
	<path id="Vector" d="M2.02 34.93L14.36 34.93C15.48 34.93 16.39 34.02 16.39 32.9L16.39 20.56C16.39 19.44 15.48 18.53 14.36 18.53L8.46 18.53C8.54 15.3 9.29 12.71 10.71 10.77C11.83 9.24 13.52 7.97 15.79 6.96C16.84 6.5 17.29 5.27 16.8 4.24L15.34 1.15C14.87 0.16 13.7 -0.27 12.7 0.16C10.01 1.32 7.74 2.79 5.89 4.58C3.63 6.76 2.09 9.22 1.25 11.96C0.41 14.71 0 18.45 0 23.2L0 32.9C0 34.02 0.9 34.93 2.02 34.93ZM35.27 0.17C32.61 1.33 30.36 2.8 28.49 4.58C26.22 6.76 24.66 9.21 23.83 11.93C22.99 14.66 22.57 18.41 22.57 23.2L22.57 32.9C22.57 34.02 23.48 34.93 24.6 34.93L36.94 34.93C38.06 34.93 38.97 34.02 38.97 32.9L38.97 20.56C38.97 19.44 38.06 18.53 36.94 18.53L31.04 18.53C31.11 15.3 31.86 12.71 33.28 10.77C34.4 9.24 36.1 7.97 38.37 6.96C39.41 6.5 39.86 5.27 39.38 4.24L37.92 1.16C37.45 0.17 36.28 -0.27 35.27 0.17Z" fill="#FE510F" fill-opacity="1.000000" fill-rule="nonzero"/>
</svg>
